%TF.GenerationSoftware,KiCad,Pcbnew,7.0.5*%
%TF.CreationDate,2023-06-14T16:30:10+07:00*%
%TF.ProjectId,Smart CB STM32 PCB,536d6172-7420-4434-9220-53544d333220,rev?*%
%TF.SameCoordinates,Original*%
%TF.FileFunction,Paste,Bot*%
%TF.FilePolarity,Positive*%
%FSLAX46Y46*%
G04 Gerber Fmt 4.6, Leading zero omitted, Abs format (unit mm)*
G04 Created by KiCad (PCBNEW 7.0.5) date 2023-06-14 16:30:10*
%MOMM*%
%LPD*%
G01*
G04 APERTURE LIST*
G04 Aperture macros list*
%AMRoundRect*
0 Rectangle with rounded corners*
0 $1 Rounding radius*
0 $2 $3 $4 $5 $6 $7 $8 $9 X,Y pos of 4 corners*
0 Add a 4 corners polygon primitive as box body*
4,1,4,$2,$3,$4,$5,$6,$7,$8,$9,$2,$3,0*
0 Add four circle primitives for the rounded corners*
1,1,$1+$1,$2,$3*
1,1,$1+$1,$4,$5*
1,1,$1+$1,$6,$7*
1,1,$1+$1,$8,$9*
0 Add four rect primitives between the rounded corners*
20,1,$1+$1,$2,$3,$4,$5,0*
20,1,$1+$1,$4,$5,$6,$7,0*
20,1,$1+$1,$6,$7,$8,$9,0*
20,1,$1+$1,$8,$9,$2,$3,0*%
G04 Aperture macros list end*
%ADD10R,0.800000X0.900000*%
%ADD11RoundRect,0.200000X-0.275000X0.200000X-0.275000X-0.200000X0.275000X-0.200000X0.275000X0.200000X0*%
%ADD12RoundRect,0.250000X-0.375000X-0.625000X0.375000X-0.625000X0.375000X0.625000X-0.375000X0.625000X0*%
%ADD13RoundRect,0.112500X0.112500X-0.187500X0.112500X0.187500X-0.112500X0.187500X-0.112500X-0.187500X0*%
%ADD14RoundRect,0.200000X-0.200000X-0.275000X0.200000X-0.275000X0.200000X0.275000X-0.200000X0.275000X0*%
%ADD15RoundRect,0.200000X0.200000X0.275000X-0.200000X0.275000X-0.200000X-0.275000X0.200000X-0.275000X0*%
%ADD16RoundRect,0.225000X0.250000X-0.225000X0.250000X0.225000X-0.250000X0.225000X-0.250000X-0.225000X0*%
%ADD17RoundRect,0.250000X0.425000X1.075000X-0.425000X1.075000X-0.425000X-1.075000X0.425000X-1.075000X0*%
%ADD18RoundRect,0.250000X0.375000X0.625000X-0.375000X0.625000X-0.375000X-0.625000X0.375000X-0.625000X0*%
%ADD19RoundRect,0.225000X-0.250000X0.225000X-0.250000X-0.225000X0.250000X-0.225000X0.250000X0.225000X0*%
%ADD20RoundRect,0.200000X0.275000X-0.200000X0.275000X0.200000X-0.275000X0.200000X-0.275000X-0.200000X0*%
%ADD21RoundRect,0.150000X0.150000X-0.825000X0.150000X0.825000X-0.150000X0.825000X-0.150000X-0.825000X0*%
%ADD22RoundRect,0.225000X0.225000X0.250000X-0.225000X0.250000X-0.225000X-0.250000X0.225000X-0.250000X0*%
%ADD23RoundRect,0.112500X0.187500X0.112500X-0.187500X0.112500X-0.187500X-0.112500X0.187500X-0.112500X0*%
%ADD24R,0.450000X1.475000*%
%ADD25RoundRect,0.150000X0.150000X-0.587500X0.150000X0.587500X-0.150000X0.587500X-0.150000X-0.587500X0*%
%ADD26R,1.475000X0.450000*%
%ADD27RoundRect,0.225000X-0.225000X-0.250000X0.225000X-0.250000X0.225000X0.250000X-0.225000X0.250000X0*%
%ADD28RoundRect,0.112500X-0.187500X-0.112500X0.187500X-0.112500X0.187500X0.112500X-0.187500X0.112500X0*%
%ADD29R,0.900000X0.800000*%
%ADD30RoundRect,0.250000X0.625000X-0.375000X0.625000X0.375000X-0.625000X0.375000X-0.625000X-0.375000X0*%
%ADD31RoundRect,0.250000X0.325000X0.650000X-0.325000X0.650000X-0.325000X-0.650000X0.325000X-0.650000X0*%
%ADD32RoundRect,0.112500X-0.112500X0.187500X-0.112500X-0.187500X0.112500X-0.187500X0.112500X0.187500X0*%
%ADD33RoundRect,0.250000X-0.325000X-0.650000X0.325000X-0.650000X0.325000X0.650000X-0.325000X0.650000X0*%
%ADD34RoundRect,0.250000X-0.625000X0.375000X-0.625000X-0.375000X0.625000X-0.375000X0.625000X0.375000X0*%
%ADD35RoundRect,0.250000X-0.650000X0.325000X-0.650000X-0.325000X0.650000X-0.325000X0.650000X0.325000X0*%
%ADD36RoundRect,0.250000X0.650000X-0.325000X0.650000X0.325000X-0.650000X0.325000X-0.650000X-0.325000X0*%
G04 APERTURE END LIST*
D10*
%TO.C,U20*%
X209000000Y-127500000D03*
X207100000Y-127500000D03*
X208050000Y-125500000D03*
%TD*%
D11*
%TO.C,R76*%
X201250000Y-104925000D03*
X201250000Y-106575000D03*
%TD*%
D12*
%TO.C,D38*%
X86500000Y-141075000D03*
X89300000Y-141075000D03*
%TD*%
D10*
%TO.C,U15*%
X87338000Y-96088700D03*
X85438000Y-96088700D03*
X86388000Y-94088700D03*
%TD*%
D13*
%TO.C,D13*%
X141000000Y-73025000D03*
X141000000Y-70925000D03*
%TD*%
D10*
%TO.C,U27*%
X215750000Y-72250000D03*
X213850000Y-72250000D03*
X214800000Y-70250000D03*
%TD*%
D14*
%TO.C,R110*%
X87850000Y-154000000D03*
X89500000Y-154000000D03*
%TD*%
D11*
%TO.C,R59*%
X110938000Y-72188700D03*
X110938000Y-73838700D03*
%TD*%
D15*
%TO.C,R104*%
X103638000Y-110588700D03*
X101988000Y-110588700D03*
%TD*%
D16*
%TO.C,C27*%
X152210000Y-87050000D03*
X152210000Y-85500000D03*
%TD*%
D17*
%TO.C,D4*%
X238472500Y-154250000D03*
X233972500Y-154250000D03*
%TD*%
D18*
%TO.C,D35*%
X83700000Y-141075000D03*
X80900000Y-141075000D03*
%TD*%
D15*
%TO.C,R43*%
X136825000Y-82500000D03*
X135175000Y-82500000D03*
%TD*%
D19*
%TO.C,C25*%
X145750000Y-69225000D03*
X145750000Y-70775000D03*
%TD*%
D20*
%TO.C,R105*%
X100750000Y-140825000D03*
X100750000Y-139175000D03*
%TD*%
D15*
%TO.C,R72*%
X211650000Y-112800000D03*
X210000000Y-112800000D03*
%TD*%
%TO.C,R75*%
X199250000Y-105000000D03*
X197600000Y-105000000D03*
%TD*%
D21*
%TO.C,U1*%
X155610000Y-146028700D03*
X154340000Y-146028700D03*
X153070000Y-146028700D03*
X151800000Y-146028700D03*
X151800000Y-141078700D03*
X153070000Y-141078700D03*
X154340000Y-141078700D03*
X155610000Y-141078700D03*
%TD*%
D16*
%TO.C,C28*%
X152250000Y-82050000D03*
X152250000Y-80500000D03*
%TD*%
D11*
%TO.C,R113*%
X109688000Y-127188700D03*
X109688000Y-128838700D03*
%TD*%
D15*
%TO.C,R99*%
X215750000Y-76500000D03*
X214100000Y-76500000D03*
%TD*%
D20*
%TO.C,R29*%
X163250000Y-77025000D03*
X163250000Y-75375000D03*
%TD*%
D14*
%TO.C,R117*%
X97800000Y-151250000D03*
X99450000Y-151250000D03*
%TD*%
D15*
%TO.C,R40*%
X156075000Y-87000000D03*
X154425000Y-87000000D03*
%TD*%
D14*
%TO.C,R67*%
X206000000Y-91100000D03*
X207650000Y-91100000D03*
%TD*%
%TO.C,R9*%
X154810000Y-122918700D03*
X156460000Y-122918700D03*
%TD*%
D22*
%TO.C,C52*%
X111238000Y-131088700D03*
X109688000Y-131088700D03*
%TD*%
D23*
%TO.C,D27*%
X199073200Y-111250000D03*
X196973200Y-111250000D03*
%TD*%
D20*
%TO.C,R23*%
X146710000Y-143068700D03*
X146710000Y-141418700D03*
%TD*%
D24*
%TO.C,U13*%
X109188000Y-85588700D03*
X109838000Y-85588700D03*
X110488000Y-85588700D03*
X111138000Y-85588700D03*
X111788000Y-85588700D03*
X112438000Y-85588700D03*
X113088000Y-85588700D03*
X113088000Y-91464700D03*
X112438000Y-91464700D03*
X111788000Y-91464700D03*
X111138000Y-91464700D03*
X110488000Y-91464700D03*
X109838000Y-91464700D03*
X109188000Y-91464700D03*
%TD*%
D18*
%TO.C,D17*%
X83400000Y-86000000D03*
X80600000Y-86000000D03*
%TD*%
D20*
%TO.C,R30*%
X166250000Y-77025000D03*
X166250000Y-75375000D03*
%TD*%
D25*
%TO.C,Q2*%
X146710000Y-139193800D03*
X144810000Y-139193800D03*
X145760000Y-137318800D03*
%TD*%
D12*
%TO.C,D20*%
X86223000Y-85918700D03*
X89023000Y-85918700D03*
%TD*%
D14*
%TO.C,R89*%
X208200000Y-74500000D03*
X209850000Y-74500000D03*
%TD*%
D16*
%TO.C,C31*%
X103688000Y-82950700D03*
X103688000Y-81400700D03*
%TD*%
D15*
%TO.C,R92*%
X209850000Y-76500000D03*
X208200000Y-76500000D03*
%TD*%
D22*
%TO.C,C34*%
X112488000Y-75838700D03*
X110938000Y-75838700D03*
%TD*%
D15*
%TO.C,R37*%
X149325000Y-74775000D03*
X147675000Y-74775000D03*
%TD*%
D11*
%TO.C,R58*%
X116938000Y-72188700D03*
X116938000Y-73838700D03*
%TD*%
%TO.C,R112*%
X115688000Y-127188700D03*
X115688000Y-128838700D03*
%TD*%
D20*
%TO.C,R31*%
X169250000Y-77025000D03*
X169250000Y-75375000D03*
%TD*%
D15*
%TO.C,R100*%
X215750000Y-74500000D03*
X214100000Y-74500000D03*
%TD*%
D26*
%TO.C,U8*%
X136438000Y-76550000D03*
X136438000Y-77200000D03*
X136438000Y-77850000D03*
X136438000Y-78500000D03*
X136438000Y-79150000D03*
X136438000Y-79800000D03*
X136438000Y-80450000D03*
X130562000Y-80450000D03*
X130562000Y-79800000D03*
X130562000Y-79150000D03*
X130562000Y-78500000D03*
X130562000Y-77850000D03*
X130562000Y-77200000D03*
X130562000Y-76550000D03*
%TD*%
D20*
%TO.C,R51*%
X100188000Y-80975800D03*
X100188000Y-79325800D03*
%TD*%
D11*
%TO.C,R45*%
X130500000Y-65750000D03*
X130500000Y-67400000D03*
%TD*%
D22*
%TO.C,C33*%
X116988000Y-75838700D03*
X115438000Y-75838700D03*
%TD*%
D10*
%TO.C,U25*%
X209750000Y-72250000D03*
X207850000Y-72250000D03*
X208800000Y-70250000D03*
%TD*%
D20*
%TO.C,R24*%
X144460000Y-143068700D03*
X144460000Y-141418700D03*
%TD*%
D15*
%TO.C,R38*%
X130900000Y-58325000D03*
X129250000Y-58325000D03*
%TD*%
D27*
%TO.C,C23*%
X134200000Y-74250000D03*
X135750000Y-74250000D03*
%TD*%
D18*
%TO.C,D23*%
X226150000Y-119000000D03*
X223350000Y-119000000D03*
%TD*%
D16*
%TO.C,C29*%
X106888000Y-88076700D03*
X106888000Y-86526700D03*
%TD*%
D11*
%TO.C,R42*%
X127500000Y-77600000D03*
X127500000Y-79250000D03*
%TD*%
D14*
%TO.C,R65*%
X205925000Y-96600000D03*
X207575000Y-96600000D03*
%TD*%
D22*
%TO.C,C40*%
X197050000Y-108830000D03*
X195500000Y-108830000D03*
%TD*%
D20*
%TO.C,R32*%
X172250000Y-77025000D03*
X172250000Y-75375000D03*
%TD*%
D10*
%TO.C,U30*%
X85650000Y-151750000D03*
X83750000Y-151750000D03*
X84700000Y-149750000D03*
%TD*%
D22*
%TO.C,C51*%
X115713000Y-131088700D03*
X114163000Y-131088700D03*
%TD*%
D15*
%TO.C,R103*%
X103638000Y-113838700D03*
X101988000Y-113838700D03*
%TD*%
D20*
%TO.C,R116*%
X121600000Y-140625000D03*
X121600000Y-138975000D03*
%TD*%
D14*
%TO.C,R53*%
X85738000Y-98338700D03*
X87388000Y-98338700D03*
%TD*%
D19*
%TO.C,C15*%
X152210000Y-120868700D03*
X152210000Y-122418700D03*
%TD*%
D16*
%TO.C,C1*%
X148960000Y-143750000D03*
X148960000Y-142200000D03*
%TD*%
D14*
%TO.C,R66*%
X206000000Y-93850000D03*
X207650000Y-93850000D03*
%TD*%
D28*
%TO.C,D40*%
X111638000Y-136088700D03*
X113738000Y-136088700D03*
%TD*%
D15*
%TO.C,R73*%
X211650000Y-118300000D03*
X210000000Y-118300000D03*
%TD*%
D14*
%TO.C,R109*%
X100600000Y-137000000D03*
X102250000Y-137000000D03*
%TD*%
D23*
%TO.C,D39*%
X113688000Y-133588700D03*
X111588000Y-133588700D03*
%TD*%
D19*
%TO.C,C26*%
X145750000Y-73225000D03*
X145750000Y-74775000D03*
%TD*%
D14*
%TO.C,R54*%
X100038000Y-82900700D03*
X101688000Y-82900700D03*
%TD*%
D26*
%TO.C,U28*%
X113250000Y-143538700D03*
X113250000Y-142888700D03*
X113250000Y-142238700D03*
X113250000Y-141588700D03*
X113250000Y-140938700D03*
X113250000Y-140288700D03*
X113250000Y-139638700D03*
X119126000Y-139638700D03*
X119126000Y-140288700D03*
X119126000Y-140938700D03*
X119126000Y-141588700D03*
X119126000Y-142238700D03*
X119126000Y-142888700D03*
X119126000Y-143538700D03*
%TD*%
D11*
%TO.C,R69*%
X211500000Y-114650000D03*
X211500000Y-116300000D03*
%TD*%
D19*
%TO.C,C38*%
X208000000Y-116750000D03*
X208000000Y-118300000D03*
%TD*%
D29*
%TO.C,U10*%
X133250000Y-56325000D03*
X133250000Y-54425000D03*
X135250000Y-55375000D03*
%TD*%
D15*
%TO.C,R64*%
X93478000Y-98338700D03*
X91828000Y-98338700D03*
%TD*%
D13*
%TO.C,D36*%
X107000000Y-140800000D03*
X107000000Y-138700000D03*
%TD*%
D15*
%TO.C,R36*%
X149325000Y-69275000D03*
X147675000Y-69275000D03*
%TD*%
D10*
%TO.C,U17*%
X93338000Y-96088700D03*
X91438000Y-96088700D03*
X92388000Y-94088700D03*
%TD*%
D18*
%TO.C,D29*%
X225715000Y-63470000D03*
X222915000Y-63470000D03*
%TD*%
D22*
%TO.C,C19*%
X140760000Y-132168700D03*
X139210000Y-132168700D03*
%TD*%
D15*
%TO.C,R47*%
X105513000Y-66668700D03*
X103863000Y-66668700D03*
%TD*%
D19*
%TO.C,C37*%
X208000000Y-112750000D03*
X208000000Y-114300000D03*
%TD*%
D16*
%TO.C,C11*%
X149960000Y-122443700D03*
X149960000Y-120893700D03*
%TD*%
D14*
%TO.C,R56*%
X91038000Y-100588700D03*
X92688000Y-100588700D03*
%TD*%
D15*
%TO.C,R48*%
X105513000Y-63668700D03*
X103863000Y-63668700D03*
%TD*%
D14*
%TO.C,R63*%
X95553000Y-98338700D03*
X97203000Y-98338700D03*
%TD*%
D19*
%TO.C,C13*%
X146250000Y-120725000D03*
X146250000Y-122275000D03*
%TD*%
D13*
%TO.C,D18*%
X106688000Y-81250800D03*
X106688000Y-79150800D03*
%TD*%
D14*
%TO.C,R55*%
X100038000Y-77400800D03*
X101688000Y-77400800D03*
%TD*%
D15*
%TO.C,R111*%
X113463000Y-127338700D03*
X111813000Y-127338700D03*
%TD*%
D30*
%TO.C,D11*%
X143200000Y-58100000D03*
X143200000Y-55300000D03*
%TD*%
D14*
%TO.C,R71*%
X207566800Y-129750000D03*
X209216800Y-129750000D03*
%TD*%
%TO.C,R1*%
X151749700Y-138000000D03*
X153399700Y-138000000D03*
%TD*%
D13*
%TO.C,D15*%
X149710000Y-84800000D03*
X149710000Y-82700000D03*
%TD*%
D31*
%TO.C,C48*%
X115938000Y-148338700D03*
X112988000Y-148338700D03*
%TD*%
D28*
%TO.C,D22*%
X112888000Y-80838700D03*
X114988000Y-80838700D03*
%TD*%
D15*
%TO.C,R101*%
X103713000Y-119588700D03*
X102063000Y-119588700D03*
%TD*%
D32*
%TO.C,D24*%
X205750000Y-114450000D03*
X205750000Y-116550000D03*
%TD*%
D15*
%TO.C,R49*%
X105513000Y-60668700D03*
X103863000Y-60668700D03*
%TD*%
D33*
%TO.C,C24*%
X132800000Y-71750000D03*
X135750000Y-71750000D03*
%TD*%
D22*
%TO.C,C39*%
X201250000Y-108830000D03*
X199700000Y-108830000D03*
%TD*%
D15*
%TO.C,R106*%
X103638000Y-107588700D03*
X101988000Y-107588700D03*
%TD*%
D32*
%TO.C,D19*%
X109188000Y-79100800D03*
X109188000Y-81200800D03*
%TD*%
D15*
%TO.C,R57*%
X114763000Y-72338700D03*
X113113000Y-72338700D03*
%TD*%
D11*
%TO.C,R35*%
X130750000Y-54075000D03*
X130750000Y-55725000D03*
%TD*%
D29*
%TO.C,U12*%
X133000000Y-64200000D03*
X133000000Y-62300000D03*
X135000000Y-63250000D03*
%TD*%
D11*
%TO.C,R96*%
X156400000Y-127350000D03*
X156400000Y-129000000D03*
%TD*%
D15*
%TO.C,R52*%
X105588000Y-54668700D03*
X103938000Y-54668700D03*
%TD*%
D20*
%TO.C,R119*%
X201250000Y-143650000D03*
X201250000Y-142000000D03*
%TD*%
%TO.C,R46*%
X130500000Y-63825000D03*
X130500000Y-62175000D03*
%TD*%
D17*
%TO.C,D2*%
X110750000Y-154000000D03*
X106250000Y-154000000D03*
%TD*%
D14*
%TO.C,R11*%
X145989880Y-125418700D03*
X147639880Y-125418700D03*
%TD*%
D11*
%TO.C,R77*%
X195500000Y-104930000D03*
X195500000Y-106580000D03*
%TD*%
D14*
%TO.C,R108*%
X100600000Y-143000000D03*
X102250000Y-143000000D03*
%TD*%
D16*
%TO.C,C50*%
X104500000Y-138500000D03*
X104500000Y-136950000D03*
%TD*%
D11*
%TO.C,R62*%
X115250000Y-88750000D03*
X115250000Y-90400000D03*
%TD*%
D14*
%TO.C,R68*%
X206000000Y-88350000D03*
X207650000Y-88350000D03*
%TD*%
D15*
%TO.C,R102*%
X103688000Y-116838700D03*
X102038000Y-116838700D03*
%TD*%
D32*
%TO.C,D37*%
X109700000Y-138700000D03*
X109700000Y-140800000D03*
%TD*%
D14*
%TO.C,R70*%
X206000000Y-85800000D03*
X207650000Y-85800000D03*
%TD*%
D15*
%TO.C,R50*%
X105513000Y-57668700D03*
X103863000Y-57668700D03*
%TD*%
D22*
%TO.C,C47*%
X114488000Y-145838700D03*
X112938000Y-145838700D03*
%TD*%
D16*
%TO.C,C49*%
X104500000Y-143025000D03*
X104500000Y-141475000D03*
%TD*%
D15*
%TO.C,R44*%
X132825000Y-82500000D03*
X131175000Y-82500000D03*
%TD*%
%TO.C,R118*%
X95700000Y-151250000D03*
X94050000Y-151250000D03*
%TD*%
D11*
%TO.C,R33*%
X149250000Y-71200000D03*
X149250000Y-72850000D03*
%TD*%
D20*
%TO.C,R39*%
X155960000Y-84450000D03*
X155960000Y-82800000D03*
%TD*%
D15*
%TO.C,R74*%
X209116800Y-131750000D03*
X207466800Y-131750000D03*
%TD*%
D20*
%TO.C,R34*%
X175250000Y-77025000D03*
X175250000Y-75375000D03*
%TD*%
D14*
%TO.C,R10*%
X147560000Y-115418700D03*
X149210000Y-115418700D03*
%TD*%
D34*
%TO.C,D14*%
X143200000Y-60900000D03*
X143200000Y-63700000D03*
%TD*%
D20*
%TO.C,R21*%
X149210000Y-138643700D03*
X149210000Y-136993700D03*
%TD*%
D35*
%TO.C,C9*%
X162460000Y-117168700D03*
X162460000Y-120118700D03*
%TD*%
D14*
%TO.C,R107*%
X84000000Y-154000000D03*
X85650000Y-154000000D03*
%TD*%
D19*
%TO.C,C2*%
X157920000Y-142778700D03*
X157920000Y-144328700D03*
%TD*%
D36*
%TO.C,C30*%
X104388000Y-89476800D03*
X104388000Y-86526800D03*
%TD*%
D10*
%TO.C,U32*%
X96250000Y-149000000D03*
X94350000Y-149000000D03*
X95300000Y-147000000D03*
%TD*%
D11*
%TO.C,R97*%
X154000000Y-127350000D03*
X154000000Y-129000000D03*
%TD*%
D15*
%TO.C,R41*%
X156150000Y-80500000D03*
X154500000Y-80500000D03*
%TD*%
D12*
%TO.C,D26*%
X229000000Y-119000000D03*
X231800000Y-119000000D03*
%TD*%
D32*
%TO.C,D16*%
X147210000Y-82700000D03*
X147210000Y-84800000D03*
%TD*%
%TO.C,D12*%
X143500000Y-70925000D03*
X143500000Y-73025000D03*
%TD*%
D23*
%TO.C,D21*%
X114938000Y-78338700D03*
X112838000Y-78338700D03*
%TD*%
D16*
%TO.C,C32*%
X103688000Y-78950700D03*
X103688000Y-77400700D03*
%TD*%
D12*
%TO.C,D32*%
X228265000Y-63470000D03*
X231065000Y-63470000D03*
%TD*%
G36*
X255115677Y-72519685D02*
G01*
X255136319Y-72536319D01*
X260012319Y-77412319D01*
X260045804Y-77473642D01*
X260040820Y-77543334D01*
X260012319Y-77587681D01*
X257387681Y-80212319D01*
X257326358Y-80245804D01*
X257256666Y-80240820D01*
X257212319Y-80212319D01*
X253500000Y-76500000D01*
X245724000Y-76500000D01*
X245656961Y-76480315D01*
X245611206Y-76427511D01*
X245600000Y-76376000D01*
X245600000Y-72624000D01*
X245619685Y-72556961D01*
X245672489Y-72511206D01*
X245724000Y-72500000D01*
X255048638Y-72500000D01*
X255115677Y-72519685D01*
G37*
G36*
X161743039Y-27019685D02*
G01*
X161788794Y-27072489D01*
X161800000Y-27124000D01*
X161800000Y-30876000D01*
X161780315Y-30943039D01*
X161727511Y-30988794D01*
X161676000Y-31000000D01*
X152024000Y-31000000D01*
X151956961Y-30980315D01*
X151911206Y-30927511D01*
X151900000Y-30876000D01*
X151900000Y-27124000D01*
X151919685Y-27056961D01*
X151972489Y-27011206D01*
X152024000Y-27000000D01*
X161676000Y-27000000D01*
X161743039Y-27019685D01*
G37*
G36*
X55643039Y-116719685D02*
G01*
X55688794Y-116772489D01*
X55700000Y-116824000D01*
X55700000Y-126176000D01*
X55680315Y-126243039D01*
X55627511Y-126288794D01*
X55576000Y-126300000D01*
X51724000Y-126300000D01*
X51656961Y-126280315D01*
X51611206Y-126227511D01*
X51600000Y-126176000D01*
X51600000Y-116824000D01*
X51619685Y-116756961D01*
X51672489Y-116711206D01*
X51724000Y-116700000D01*
X55576000Y-116700000D01*
X55643039Y-116719685D01*
G37*
G36*
X54995709Y-54295709D02*
G01*
X61700000Y-61000000D01*
X78700000Y-61000000D01*
X78700000Y-60999999D01*
X79908881Y-59791118D01*
X79970204Y-59757633D01*
X80039896Y-59762617D01*
X80087548Y-59794552D01*
X82500001Y-62400001D01*
X82500017Y-62400018D01*
X82712318Y-62612319D01*
X82745803Y-62673642D01*
X82740819Y-62743334D01*
X82712318Y-62787681D01*
X80536319Y-64963681D01*
X80474996Y-64997166D01*
X80448638Y-65000000D01*
X60051362Y-65000000D01*
X59984323Y-64980315D01*
X59963681Y-64963681D01*
X52380326Y-57380326D01*
X52346841Y-57319003D01*
X52351825Y-57249311D01*
X52372999Y-57212961D01*
X54813020Y-54303706D01*
X54871183Y-54264991D01*
X54941043Y-54263866D01*
X54995709Y-54295709D01*
G37*
G36*
X259943039Y-102269685D02*
G01*
X259988794Y-102322489D01*
X260000000Y-102374000D01*
X260000000Y-112376000D01*
X259980315Y-112443039D01*
X259927511Y-112488794D01*
X259876000Y-112500000D01*
X256124000Y-112500000D01*
X256056961Y-112480315D01*
X256011206Y-112427511D01*
X256000000Y-112376000D01*
X256000000Y-102374000D01*
X256019685Y-102306961D01*
X256072489Y-102261206D01*
X256124000Y-102250000D01*
X259876000Y-102250000D01*
X259943039Y-102269685D01*
G37*
G36*
X256789438Y-91813075D02*
G01*
X256837511Y-91845467D01*
X259419774Y-94662480D01*
X259450564Y-94725200D01*
X259442557Y-94794609D01*
X259416048Y-94833951D01*
X250036319Y-104213681D01*
X249974996Y-104247166D01*
X249948638Y-104250000D01*
X230051362Y-104250000D01*
X229984323Y-104230315D01*
X229963681Y-104213681D01*
X224036319Y-98286319D01*
X224002834Y-98224996D01*
X224000000Y-98198638D01*
X224000000Y-92799362D01*
X224019685Y-92732323D01*
X224072489Y-92686568D01*
X224141647Y-92676624D01*
X224205203Y-92705649D01*
X224211681Y-92711681D01*
X231750000Y-100250000D01*
X248250000Y-100250000D01*
X248250000Y-100249999D01*
X256658423Y-91841576D01*
X256719746Y-91808091D01*
X256789438Y-91813075D01*
G37*
G36*
X257015677Y-117769685D02*
G01*
X257036319Y-117786319D01*
X260912319Y-121662318D01*
X260945804Y-121723641D01*
X260940820Y-121793333D01*
X260912319Y-121837680D01*
X258087680Y-124662318D01*
X258026357Y-124695803D01*
X257956665Y-124690819D01*
X257912318Y-124662318D01*
X255000000Y-121750000D01*
X241624000Y-121750000D01*
X241556961Y-121730315D01*
X241511206Y-121677511D01*
X241500000Y-121626000D01*
X241500000Y-117874000D01*
X241519685Y-117806961D01*
X241572489Y-117761206D01*
X241624000Y-117750000D01*
X256948638Y-117750000D01*
X257015677Y-117769685D01*
G37*
G36*
X65043039Y-133719685D02*
G01*
X65088794Y-133772489D01*
X65100000Y-133824000D01*
X65100000Y-137676000D01*
X65080315Y-137743039D01*
X65027511Y-137788794D01*
X64976000Y-137800000D01*
X53724000Y-137800000D01*
X53656961Y-137780315D01*
X53611206Y-137727511D01*
X53600000Y-137676000D01*
X53600000Y-133824000D01*
X53619685Y-133756961D01*
X53672489Y-133711206D01*
X53724000Y-133700000D01*
X64976000Y-133700000D01*
X65043039Y-133719685D01*
G37*
G36*
X88015677Y-51619685D02*
G01*
X88036319Y-51636319D01*
X89890069Y-53490069D01*
X89923554Y-53551392D01*
X89918570Y-53621084D01*
X89876698Y-53677017D01*
X89868377Y-53682733D01*
X86583734Y-55747366D01*
X86516501Y-55766377D01*
X86449662Y-55746020D01*
X86430064Y-55730064D01*
X86300000Y-55600000D01*
X69951362Y-55600000D01*
X69884323Y-55580315D01*
X69863679Y-55563680D01*
X69836317Y-55536317D01*
X69802833Y-55474993D01*
X69800000Y-55448637D01*
X69800000Y-51724000D01*
X69819685Y-51656961D01*
X69872489Y-51611206D01*
X69924000Y-51600000D01*
X87948638Y-51600000D01*
X88015677Y-51619685D01*
G37*
G36*
X175643039Y-45819685D02*
G01*
X175688794Y-45872489D01*
X175700000Y-45924000D01*
X175700000Y-63276000D01*
X175680315Y-63343039D01*
X175627511Y-63388794D01*
X175576000Y-63400000D01*
X171824000Y-63400000D01*
X171756961Y-63380315D01*
X171711206Y-63327511D01*
X171700000Y-63276000D01*
X171700000Y-45924000D01*
X171719685Y-45856961D01*
X171772489Y-45811206D01*
X171824000Y-45800000D01*
X175576000Y-45800000D01*
X175643039Y-45819685D01*
G37*
G36*
X64343039Y-82319685D02*
G01*
X64388794Y-82372489D01*
X64400000Y-82424000D01*
X64400000Y-86276000D01*
X64380315Y-86343039D01*
X64327511Y-86388794D01*
X64276000Y-86400000D01*
X53824000Y-86400000D01*
X53756961Y-86380315D01*
X53711206Y-86327511D01*
X53700000Y-86276000D01*
X53700000Y-82424000D01*
X53719685Y-82356961D01*
X53772489Y-82311206D01*
X53824000Y-82300000D01*
X64276000Y-82300000D01*
X64343039Y-82319685D01*
G37*
G36*
X241843039Y-86019685D02*
G01*
X241888794Y-86072489D01*
X241900000Y-86124000D01*
X241900000Y-89876000D01*
X241880315Y-89943039D01*
X241827511Y-89988794D01*
X241776000Y-90000000D01*
X231124000Y-90000000D01*
X231056961Y-89980315D01*
X231011206Y-89927511D01*
X231000000Y-89876000D01*
X231000000Y-86124000D01*
X231019685Y-86056961D01*
X231072489Y-86011206D01*
X231124000Y-86000000D01*
X241776000Y-86000000D01*
X241843039Y-86019685D01*
G37*
G36*
X233215677Y-30519685D02*
G01*
X233236319Y-30536319D01*
X244112318Y-41412319D01*
X244145803Y-41473642D01*
X244140819Y-41543334D01*
X244112318Y-41587681D01*
X241387681Y-44312318D01*
X241326358Y-44345803D01*
X241256666Y-44340819D01*
X241212319Y-44312318D01*
X231436319Y-34536319D01*
X231402834Y-34474996D01*
X231400000Y-34448638D01*
X231400000Y-30624000D01*
X231419685Y-30556961D01*
X231472489Y-30511206D01*
X231524000Y-30500000D01*
X233148638Y-30500000D01*
X233215677Y-30519685D01*
G37*
G36*
X169843334Y-27459180D02*
G01*
X169887681Y-27487681D01*
X172512319Y-30112318D01*
X172545804Y-30173641D01*
X172540820Y-30243333D01*
X172512319Y-30287680D01*
X162200000Y-40599999D01*
X162200000Y-50900000D01*
X165500000Y-54200000D01*
X166972939Y-54200000D01*
X167039978Y-54219685D01*
X167085733Y-54272489D01*
X167096902Y-54327023D01*
X167002951Y-58179023D01*
X166981638Y-58245563D01*
X166927734Y-58290017D01*
X166878988Y-58300000D01*
X163951362Y-58300000D01*
X163884323Y-58280315D01*
X163863681Y-58263681D01*
X158236319Y-52636319D01*
X158202834Y-52574996D01*
X158200000Y-52548638D01*
X158200000Y-39051362D01*
X158219685Y-38984323D01*
X158236319Y-38963681D01*
X169712319Y-27487681D01*
X169773642Y-27454196D01*
X169843334Y-27459180D01*
G37*
G36*
X144443039Y-28719685D02*
G01*
X144488794Y-28772489D01*
X144500000Y-28824000D01*
X144500000Y-38976000D01*
X144480315Y-39043039D01*
X144427511Y-39088794D01*
X144376000Y-39100000D01*
X140624000Y-39100000D01*
X140556961Y-39080315D01*
X140511206Y-39027511D01*
X140500000Y-38976000D01*
X140500000Y-28824000D01*
X140519685Y-28756961D01*
X140572489Y-28711206D01*
X140624000Y-28700000D01*
X144376000Y-28700000D01*
X144443039Y-28719685D01*
G37*
G36*
X70995709Y-104795709D02*
G01*
X74900000Y-108700000D01*
X87476000Y-108700000D01*
X87543039Y-108719685D01*
X87588794Y-108772489D01*
X87600000Y-108824000D01*
X87600000Y-112676000D01*
X87580315Y-112743039D01*
X87527511Y-112788794D01*
X87476000Y-112800000D01*
X73351362Y-112800000D01*
X73284323Y-112780315D01*
X73263681Y-112763681D01*
X68380326Y-107880326D01*
X68346841Y-107819003D01*
X68351825Y-107749311D01*
X68372999Y-107712961D01*
X70813020Y-104803706D01*
X70871183Y-104764991D01*
X70941043Y-104763866D01*
X70995709Y-104795709D01*
G37*
G36*
X54999107Y-105699107D02*
G01*
X64800000Y-115500000D01*
X80376000Y-115500000D01*
X80443039Y-115519685D01*
X80488794Y-115572489D01*
X80500000Y-115624000D01*
X80500000Y-119376000D01*
X80480315Y-119443039D01*
X80427511Y-119488794D01*
X80376000Y-119500000D01*
X63151362Y-119500000D01*
X63084323Y-119480315D01*
X63063681Y-119463681D01*
X52477572Y-108877572D01*
X52444087Y-108816249D01*
X52449071Y-108746557D01*
X52467538Y-108713551D01*
X54813711Y-105710448D01*
X54870495Y-105669738D01*
X54940275Y-105666191D01*
X54999107Y-105699107D01*
G37*
G36*
X259943039Y-58719685D02*
G01*
X259988794Y-58772489D01*
X260000000Y-58824000D01*
X260000000Y-68676000D01*
X259980315Y-68743039D01*
X259927511Y-68788794D01*
X259876000Y-68800000D01*
X256124000Y-68800000D01*
X256056961Y-68780315D01*
X256011206Y-68727511D01*
X256000000Y-68676000D01*
X256000000Y-58824000D01*
X256019685Y-58756961D01*
X256072489Y-58711206D01*
X256124000Y-58700000D01*
X259876000Y-58700000D01*
X259943039Y-58719685D01*
G37*
G36*
X55643039Y-65019685D02*
G01*
X55688794Y-65072489D01*
X55700000Y-65124000D01*
X55700000Y-75076000D01*
X55680315Y-75143039D01*
X55627511Y-75188794D01*
X55576000Y-75200000D01*
X51824000Y-75200000D01*
X51756961Y-75180315D01*
X51711206Y-75127511D01*
X51700000Y-75076000D01*
X51700000Y-65124000D01*
X51719685Y-65056961D01*
X51772489Y-65011206D01*
X51824000Y-65000000D01*
X55576000Y-65000000D01*
X55643039Y-65019685D01*
G37*
G36*
X223318194Y-36935911D02*
G01*
X223365459Y-36965459D01*
X239000000Y-52600000D01*
X252400000Y-52600000D01*
X252400000Y-52599999D01*
X256812319Y-48187680D01*
X256873642Y-48154195D01*
X256943334Y-48159179D01*
X256987681Y-48187680D01*
X259612319Y-50812319D01*
X259645804Y-50873642D01*
X259640820Y-50943334D01*
X259612319Y-50987681D01*
X254036319Y-56563681D01*
X253974996Y-56597166D01*
X253948638Y-56600000D01*
X237451362Y-56600000D01*
X237384323Y-56580315D01*
X237363681Y-56563681D01*
X222346464Y-41546464D01*
X222312979Y-41485141D01*
X222312358Y-41435462D01*
X223155991Y-37029819D01*
X223187932Y-36967678D01*
X223248399Y-36932671D01*
X223318194Y-36935911D01*
G37*
M02*
