%TF.GenerationSoftware,KiCad,Pcbnew,7.0.5*%
%TF.CreationDate,2023-06-14T16:30:10+07:00*%
%TF.ProjectId,Smart CB STM32 PCB,536d6172-7420-4434-9220-53544d333220,rev?*%
%TF.SameCoordinates,Original*%
%TF.FileFunction,Profile,NP*%
%FSLAX46Y46*%
G04 Gerber Fmt 4.6, Leading zero omitted, Abs format (unit mm)*
G04 Created by KiCad (PCBNEW 7.0.5) date 2023-06-14 16:30:10*
%MOMM*%
%LPD*%
G01*
G04 APERTURE LIST*
%TA.AperFunction,Profile*%
%ADD10C,0.100000*%
%TD*%
G04 APERTURE END LIST*
D10*
X75250000Y-151750000D02*
G75*
G03*
X77250000Y-151750000I1000000J0D01*
G01*
X236500000Y-115500000D02*
X236500000Y-128500000D01*
X145500000Y-52000000D02*
G75*
G03*
X145500000Y-50000000I0J1000000D01*
G01*
X41750000Y-17500000D02*
X269750000Y-17500000D01*
X269750000Y-162500000D01*
X41750000Y-162500000D01*
X41750000Y-17500000D01*
X121000000Y-66500000D02*
X121000000Y-55500000D01*
X236750000Y-64000000D02*
G75*
G03*
X234750000Y-64000000I-1000000J0D01*
G01*
X247500000Y-130500000D02*
G75*
G03*
X247500000Y-128500000I0J1000000D01*
G01*
X119000000Y-50000000D02*
X145500000Y-50000000D01*
X219000000Y-82000000D02*
G75*
G03*
X219000000Y-80000000I0J1000000D01*
G01*
X185000000Y-45000000D02*
G75*
G03*
X183000000Y-45000000I-1000000J0D01*
G01*
X185000000Y-45000000D02*
X185000000Y-73500000D01*
X236500000Y-128500000D02*
X247500000Y-128500000D01*
X122750000Y-52000000D02*
X121000000Y-52000000D01*
X234750000Y-81250000D02*
G75*
G03*
X236750000Y-81250000I1000000J0D01*
G01*
X77250000Y-102750000D02*
X77250000Y-101500000D01*
X75250000Y-104750000D02*
X103750000Y-104750000D01*
X198500000Y-80000000D02*
X219000000Y-80000000D01*
X103750000Y-104750000D02*
G75*
G03*
X103750000Y-102750000I0J1000000D01*
G01*
X183000000Y-45000000D02*
X183000000Y-73500000D01*
X75250000Y-101500000D02*
X75250000Y-104750000D01*
X122750000Y-52000000D02*
X145500000Y-52000000D01*
X119000000Y-50500000D02*
X119000000Y-50000000D01*
X119000000Y-66500000D02*
G75*
G03*
X121000000Y-66500000I1000000J0D01*
G01*
X174000000Y-94500000D02*
X138750000Y-94500000D01*
X138750000Y-97500000D02*
X174000000Y-97500000D01*
X75250000Y-82000000D02*
X75250000Y-101500000D01*
X119000000Y-66500000D02*
X119000000Y-50500000D01*
X121000000Y-52000000D02*
X121000000Y-52250000D01*
X138750000Y-94500000D02*
G75*
G03*
X138750000Y-97500000I0J-1500000D01*
G01*
X103750000Y-102750000D02*
X77250000Y-102750000D01*
X121000000Y-55500000D02*
X121000000Y-52250000D01*
X174000000Y-97500000D02*
G75*
G03*
X174000000Y-94500000I0J1500000D01*
G01*
X75250000Y-136000000D02*
X75250000Y-151750000D01*
X234750000Y-64000000D02*
X234750000Y-81250000D01*
X77250000Y-82000000D02*
G75*
G03*
X75250000Y-82000000I-1000000J0D01*
G01*
X236750000Y-64000000D02*
X236750000Y-81250000D01*
X77250000Y-82000000D02*
X77250000Y-101500000D01*
X234500000Y-115500000D02*
X234500000Y-130500000D01*
X77250000Y-136000000D02*
G75*
G03*
X75250000Y-136000000I-1000000J0D01*
G01*
X234500000Y-130500000D02*
X247500000Y-130500000D01*
X77250000Y-136000000D02*
X77250000Y-151750000D01*
X183000000Y-73500000D02*
G75*
G03*
X185000000Y-73500000I1000000J0D01*
G01*
X198500000Y-80000000D02*
G75*
G03*
X198500000Y-82000000I0J-1000000D01*
G01*
X198500000Y-82000000D02*
X219000000Y-82000000D01*
X236500000Y-115500000D02*
G75*
G03*
X234500000Y-115500000I-1000000J0D01*
G01*
M02*
