M48
; DRILL file {KiCad 7.0.5} date Wed Jun 14 16:30:04 2023
; FORMAT={-:-/ absolute / inch / decimal}
; #@! TF.CreationDate,2023-06-14T16:30:04+07:00
; #@! TF.GenerationSoftware,Kicad,Pcbnew,7.0.5
; #@! TF.FileFunction,Plated,1,4,PTH
FMAT,2
INCH
; #@! TA.AperFunction,Plated,PTH,ViaDrill
T1C0.0118
; #@! TA.AperFunction,Plated,PTH,ViaDrill
T2C0.0157
; #@! TA.AperFunction,Plated,PTH,ComponentDrill
T3C0.0236
; #@! TA.AperFunction,Plated,PTH,ComponentDrill
T4C0.0295
; #@! TA.AperFunction,Plated,PTH,ComponentDrill
T5C0.0300
; #@! TA.AperFunction,Plated,PTH,ComponentDrill
T6C0.0335
; #@! TA.AperFunction,Plated,PTH,ComponentDrill
T7C0.0394
; #@! TA.AperFunction,Plated,PTH,ComponentDrill
T8C0.0472
; #@! TA.AperFunction,Plated,PTH,ComponentDrill
T9C0.0669
; #@! TA.AperFunction,Plated,PTH,ComponentDrill
T10C0.0787
; #@! TA.AperFunction,Plated,PTH,ComponentDrill
T11C0.0984
; #@! TA.AperFunction,Plated,PTH,ComponentDrill
T12C0.1693
; #@! TA.AperFunction,Plated,PTH,ComponentDrill
T13C0.2402
%
G90
G05
T1
X3.5728Y-6.063
X3.9272Y-5.9154
X4.5157Y-3.874
X4.6063Y-3.9606
X5.0394Y-4.2717
X5.2461Y-5.1142
X5.252Y-5.1535
X5.2559Y-5.0787
X5.2953Y-4.5866
X5.3189Y-4.6772
X5.3839Y-5.7382
X5.4429Y-5.4921
X5.4921Y-4.7146
X5.5591Y-4.748
X5.5709Y-4.8657
X5.689Y-4.6555
X5.7087Y-4.9409
X5.8465Y-3.1772
X5.8465Y-3.3386
X5.9843Y-5.3937
X6.0039Y-5.315
X6.0433Y-5.6201
X6.1929Y-5.0551
X6.1969Y-5.1142
X6.3465Y-5.0039
X6.4449Y-5.0118
X7.1024Y-4.3386
X7.2126Y-5.0945
X7.2559Y-4.315
X7.2756Y-5.0236
X7.3228Y-3.1732
X7.3504Y-3.1417
X7.4921Y-3.6654
X7.4961Y-3.5
X7.7559Y-4.4449
X7.7756Y-4.7047
X7.8248Y-2.8346
X7.8346Y-4.4449
X8.0512Y-4.5079
X8.0512Y-4.5866
X8.4154Y-5.187
T2
X3.1496Y-5.8661
X3.1496Y-6.0138
X3.1496Y-6.1614
X3.1496Y-6.3287
X3.2283Y-3.4941
X3.2382Y-3.7008
X3.2382Y-3.8386
X3.2382Y-3.9665
X3.2382Y-5.6496
X3.2559Y-5.9764
X3.2992Y-6.0197
X3.3346Y-3.8701
X3.3465Y-6.1614
X3.3465Y-6.3287
X3.3701Y-3.8268
X3.435Y-3.4941
X3.435Y-5.6496
X3.4646Y-3.9469
X3.5433Y-5.8661
X3.5433Y-5.9843
X3.5531Y-6.1614
X3.5531Y-6.3287
X3.5748Y-3.8701
X3.6142Y-3.8268
X3.6614Y-3.3465
X3.6614Y-3.5039
X3.6614Y-5.9528
X3.6811Y-5.689
X3.7008Y-2.9134
X3.7008Y-3.0315
X3.7008Y-3.6516
X3.7126Y-5.9094
X3.7303Y-5.1969
X3.7894Y-5.3937
X3.7894Y-5.6201
X3.7992Y-3.8091
X3.8091Y-6.1614
X3.8091Y-6.3287
X3.8189Y-3.3465
X3.8189Y-3.5039
X3.8583Y-2.9134
X3.8583Y-3.0315
X3.8583Y-3.6516
X3.8878Y-5.689
X3.8878Y-5.8071
X3.8976Y-5.1969
X3.9469Y-3.8091
X3.9469Y-3.9173
X3.9862Y-3.5039
X4.0157Y-2.9134
X4.0157Y-3.1004
X4.0157Y-3.1496
X4.0157Y-3.2087
X4.0256Y-3.6516
X4.0453Y-5.4528
X4.0453Y-5.5118
X4.0453Y-5.5709
X4.0551Y-5.1969
X4.0669Y-3.5591
X4.0846Y-3.1594
X4.0945Y-3.8091
X4.0945Y-3.9173
X4.1024Y-5.8425
X4.1024Y-5.9528
X4.1142Y-5.5118
X4.1339Y-6.0079
X4.1339Y-6.0472
X4.1339Y-6.0866
X4.1339Y-6.126
X4.1417Y-5.8425
X4.1417Y-5.9528
X4.1496Y-3.5591
X4.1654Y-3.4094
X4.1732Y-2.9134
X4.1811Y-5.8425
X4.1811Y-5.9528
X4.2028Y-3.0413
X4.2028Y-3.6516
X4.2087Y-3.5079
X4.2126Y-5.3937
X4.2205Y-5.8425
X4.2205Y-5.9528
X4.2224Y-3.9173
X4.2224Y-5.1969
X4.2559Y-3.3858
X4.2598Y-5.6299
X4.2835Y-5.9528
X4.2874Y-5.8386
X4.3012Y-2.9134
X4.3012Y-3.0413
X4.311Y-5.3937
X4.311Y-5.7382
X4.3209Y-3.7697
X4.3228Y-5.9528
X4.3268Y-5.8386
X4.3622Y-5.9528
X4.3661Y-5.8386
X4.3701Y-3.0807
X4.3799Y-5.0787
X4.3858Y-5.7402
X4.3898Y-4.8917
X4.4016Y-5.6535
X4.4016Y-5.9528
X4.4055Y-5.8386
X4.4094Y-2.7165
X4.4094Y-6.0039
X4.4094Y-6.0433
X4.4094Y-6.0827
X4.4094Y-6.122
X4.4291Y-2.9134
X4.439Y-5.0787
X4.439Y-5.1575
X4.4528Y-3.3189
X4.4567Y-5.4646
X4.4783Y-3.248
X4.4882Y-2.9134
X4.4882Y-2.9921
X4.4882Y-3.7008
X4.4882Y-3.8386
X4.498Y-4.8917
X4.498Y-5.0787
X4.5374Y-3.9961
X4.5472Y-2.7165
X4.5472Y-2.9134
X4.5472Y-5.7382
X4.5571Y-5.502
X4.5768Y-3.5576
X4.5768Y-5.6594
X4.5906Y-3.9252
X4.6024Y-3.7835
X4.6063Y-5.7972
X4.6063Y-5.8366
X4.6063Y-5.876
X4.626Y-5.502
X4.626Y-6.0039
X4.6358Y-5.2953
X4.6457Y-3.3858
X4.6457Y-3.5827
X4.6457Y-3.7008
X4.6457Y-5.0
X4.6457Y-5.7087
X4.6535Y-5.8425
X4.6555Y-6.0531
X4.6929Y-5.8425
X4.6949Y-6.0531
X4.7244Y-5.7579
X4.7283Y-4.0039
X4.7323Y-5.8425
X4.7343Y-6.0531
X4.7539Y-6.0039
X4.7638Y-2.7165
X4.7638Y-2.874
X4.7638Y-3.0315
X4.7638Y-3.1496
X4.7638Y-3.3858
X4.7638Y-3.5827
X4.7638Y-3.7795
X4.7638Y-5.1772
X4.7795Y-6.122
X4.7795Y-6.1575
X4.7795Y-6.1969
X4.785Y-5.4326
X4.7933Y-5.2953
X4.8031Y-5.7579
X4.811Y-6.0945
X4.8189Y-6.252
X4.8189Y-6.2913
X4.8189Y-6.3307
X4.8228Y-5.8583
X4.8228Y-5.8976
X4.8228Y-5.9409
X4.8327Y-4.0787
X4.8327Y-4.3583
X4.8327Y-4.5945
X4.8327Y-4.8031
X4.8425Y-5.6102
X4.8465Y-5.9724
X4.8504Y-6.0945
X4.8661Y-6.2362
X4.8819Y-5.4035
X4.8858Y-5.9724
X4.9114Y-3.9833
X4.9213Y-2.1457
X4.9213Y-2.3031
X4.9213Y-2.5394
X4.9213Y-2.7067
X4.9213Y-5.748
X4.9213Y-5.8268
X4.9252Y-5.9724
X4.9646Y-5.9724
X4.9902Y-4.2717
X4.9902Y-4.3996
X4.9902Y-4.5079
X5.0039Y-5.9724
X5.0157Y-5.1142
X5.0197Y-2.4409
X5.0197Y-2.8701
X5.0197Y-2.9764
X5.0197Y-3.0217
X5.0197Y-5.8543
X5.0197Y-5.8937
X5.0197Y-5.937
X5.0492Y-4.0709
X5.0591Y-3.8091
X5.0886Y-5.2165
X5.0984Y-5.748
X5.0984Y-5.8268
X5.0984Y-5.9055
X5.0984Y-5.9843
X5.0984Y-6.1417
X5.0984Y-6.2402
X5.0984Y-6.3386
X5.1181Y-2.3622
X5.1299Y-2.8701
X5.1309Y-4.8425
X5.1314Y-4.9803
X5.1457Y-5.1142
X5.1644Y-3.2087
X5.1772Y-4.6388
X5.187Y-2.4508
X5.1969Y-2.1358
X5.1969Y-5.2165
X5.2126Y-3.0118
X5.2165Y-2.6496
X5.2205Y-5.5138
X5.2264Y-2.8839
X5.2264Y-5.8268
X5.2362Y-2.3327
X5.2362Y-2.4114
X5.2461Y-2.1063
X5.2539Y-5.0049
X5.2539Y-5.2146
X5.2756Y-3.6024
X5.2756Y-5.748
X5.2854Y-2.9626
X5.2913Y-3.0118
X5.2913Y-3.0709
X5.2913Y-3.1299
X5.315Y-2.6496
X5.3386Y-2.9646
X5.3445Y-5.1142
X5.3465Y-2.8819
X5.3543Y-2.3327
X5.3543Y-5.6299
X5.3701Y-5.5433
X5.374Y-5.5906
X5.374Y-5.6988
X5.374Y-5.9449
X5.374Y-6.0138
X5.3839Y-5.6594
X5.4134Y-2.6496
X5.4134Y-2.8071
X5.4134Y-2.9331
X5.4232Y-3.1791
X5.4242Y-3.248
X5.4409Y-5.2047
X5.4567Y-4.4094
X5.4724Y-3.8976
X5.4724Y-4.0551
X5.4724Y-4.2126
X5.4803Y-5.4724
X5.4921Y-3.0157
X5.4921Y-4.9114
X5.502Y-3.248
X5.5039Y-2.937
X5.5039Y-4.4094
X5.5236Y-4.5
X5.5276Y-4.6142
X5.5276Y-4.689
X5.5512Y-3.5827
X5.5709Y-4.9114
X5.5748Y-5.7323
X5.6063Y-4.4094
X5.6063Y-5.2165
X5.6142Y-4.6181
X5.6535Y-5.7913
X5.6575Y-3.0315
X5.6693Y-3.1929
X5.6693Y-3.2874
X5.6693Y-3.8976
X5.6693Y-4.5906
X5.6874Y-5.7677
X5.7087Y-4.7362
X5.7244Y-3.3819
X5.7283Y-6.1614
X5.7283Y-6.3189
X5.7382Y-2.8346
X5.7382Y-5.0
X5.7382Y-5.0787
X5.7382Y-5.1673
X5.7382Y-5.7972
X5.748Y-4.4094
X5.752Y-3.1535
X5.7563Y-5.9712
X5.7598Y-4.8504
X5.7677Y-3.0315
X5.7677Y-4.0984
X5.7677Y-4.1535
X5.7677Y-4.2047
X5.7677Y-4.2559
X5.7677Y-4.3071
X5.7677Y-4.3583
X5.7756Y-5.6772
X5.7913Y-5.7677
X5.7953Y-4.4094
X5.8031Y-3.189
X5.8071Y-2.7854
X5.8071Y-2.8346
X5.8071Y-2.8839
X5.815Y-4.5945
X5.8189Y-4.7087
X5.8268Y-4.0984
X5.8341Y-5.8803
X5.8465Y-3.3858
X5.852Y-4.937
X5.8563Y-5.0
X5.8563Y-5.0787
X5.8563Y-5.1673
X5.8661Y-3.8976
X5.874Y-4.5906
X5.876Y-3.0315
X5.878Y-5.5079
X5.8858Y-4.0984
X5.8858Y-6.1614
X5.8858Y-6.3189
X5.8957Y-4.2717
X5.9016Y-3.5669
X5.9055Y-4.8583
X5.9154Y-5.6102
X5.9173Y-4.5965
X5.935Y-4.9311
X5.9449Y-4.0984
X5.9449Y-5.876
X5.9449Y-5.9941
X5.9646Y-4.252
X5.9744Y-5.0
X5.9744Y-5.0787
X5.9744Y-5.1673
X5.9843Y-5.6299
X5.9921Y-4.7126
X5.9921Y-4.8583
X5.9941Y-3.0315
X5.9941Y-3.2972
X6.0039Y-4.0984
X6.0236Y-4.5906
X6.0276Y-5.811
X6.0394Y-5.3898
X6.0531Y-4.9311
X6.0531Y-5.6594
X6.0551Y-4.8425
X6.0591Y-6.0315
X6.063Y-3.2382
X6.063Y-3.2972
X6.063Y-3.3563
X6.063Y-3.8976
X6.063Y-4.0984
X6.0807Y-5.8465
X6.0906Y-4.5945
X6.0925Y-4.7441
X6.0925Y-5.1673
X6.1024Y-3.0315
X6.1024Y-4.3701
X6.1102Y-5.014
X6.1122Y-4.9705
X6.122Y-4.0984
X6.122Y-5.8465
X6.1457Y-6.0315
X6.1516Y-5.1969
X6.1516Y-5.6594
X6.1575Y-4.4567
X6.1693Y-6.1811
X6.1713Y-4.9311
X6.1732Y-5.811
X6.1811Y-4.0984
X6.1909Y-5.1575
X6.1969Y-4.7402
X6.2006Y-4.8352
X6.2165Y-5.7205
X6.2244Y-5.311
X6.2244Y-5.4134
X6.2402Y-4.0984
X6.2402Y-4.1535
X6.2402Y-4.2126
X6.2402Y-4.2717
X6.2402Y-4.3307
X6.2402Y-4.3898
X6.2402Y-4.4488
X6.2598Y-3.248
X6.2598Y-3.3563
X6.2598Y-3.8976
X6.2677Y-5.4488
X6.2992Y-5.5315
X6.3091Y-6.0531
X6.3091Y-6.0925
X6.3228Y-4.6969
X6.3228Y-4.7402
X6.3386Y-4.8622
X6.3386Y-5.7283
X6.3386Y-5.8465
X6.3386Y-5.9646
X6.3425Y-4.5787
X6.3484Y-5.2264
X6.3976Y-5.4331
X6.4173Y-5.6496
X6.4449Y-4.5748
X6.4528Y-4.7047
X6.4528Y-4.752
X6.4567Y-3.8976
X6.4567Y-4.0551
X6.4567Y-4.2126
X6.4567Y-4.3701
X6.5157Y-5.3543
X6.5354Y-5.2264
X6.5748Y-5.6102
X6.6535Y-3.8976
X6.6535Y-4.3307
X6.6535Y-4.4488
X6.6535Y-4.6063
X6.6535Y-5.4724
X6.6732Y-4.8031
X6.7126Y-5.6102
X6.7224Y-5.9055
X6.7323Y-5.2264
X6.7323Y-5.3543
X6.752Y-4.1437
X6.752Y-5.815
X6.7717Y-5.4724
X6.7874Y-5.9173
X6.8504Y-3.8976
X6.8602Y-4.3307
X6.8661Y-4.0236
X6.8661Y-4.2638
X6.8716Y-5.3465
X6.8716Y-5.3858
X6.874Y-5.3071
X6.8755Y-5.4764
X6.8794Y-5.6732
X6.9104Y-4.9026
X6.9149Y-5.4764
X6.9188Y-5.6732
X6.9252Y-4.5591
X6.9252Y-4.7126
X6.9291Y-5.2264
X6.9582Y-5.4764
X6.9621Y-5.6732
X6.9685Y-4.1437
X6.9685Y-5.8307
X6.9685Y-5.8701
X6.9685Y-5.9094
X6.9685Y-5.9488
X6.9936Y-5.4921
X6.9936Y-5.5315
X6.9936Y-5.5709
X6.9936Y-5.6102
X6.9936Y-5.6496
X7.0374Y-4.4685
X7.0472Y-3.8976
X7.0472Y-4.9409
X7.0787Y-5.3071
X7.0802Y-5.3504
X7.0802Y-5.3898
X7.1063Y-5.0551
X7.1235Y-5.7165
X7.126Y-5.2264
X7.1629Y-5.7165
X7.1752Y-4.4685
X7.2023Y-5.7165
X7.2416Y-5.7165
X7.2441Y-3.8976
X7.2756Y-5.1496
X7.2849Y-5.6732
X7.3228Y-5.2264
X7.3243Y-5.6732
X7.3637Y-5.6732
X7.3858Y-5.0551
X7.4409Y-1.8504
X7.4409Y-2.0079
X7.4409Y-2.1654
X7.4409Y-2.3228
X7.4409Y-2.4803
X7.4409Y-2.6378
X7.4409Y-2.7953
X7.4409Y-2.9134
X7.4705Y-4.2028
X7.4705Y-4.3307
X7.4705Y-4.4488
X7.4705Y-4.5768
X7.4705Y-4.7343
X7.5591Y-4.5276
X7.5748Y-4.7087
X7.5827Y-5.811
X7.5827Y-5.8504
X7.5827Y-5.8898
X7.5827Y-5.9291
X7.5827Y-5.9685
X7.5827Y-6.0079
X7.5984Y-2.1654
X7.5984Y-2.3228
X7.5984Y-2.4803
X7.5984Y-2.6378
X7.5984Y-2.7953
X7.5984Y-4.1339
X7.5984Y-4.2618
X7.5984Y-4.3701
X7.6122Y-4.967
X7.6142Y-5.0394
X7.628Y-4.6457
X7.6575Y-4.498
X7.6594Y-4.5906
X7.6673Y-4.7146
X7.6673Y-4.7736
X7.689Y-2.0354
X7.7067Y-4.4291
X7.7165Y-5.1378
X7.7323Y-5.811
X7.7323Y-5.8504
X7.7323Y-5.8898
X7.7323Y-5.9291
X7.7323Y-5.9685
X7.7323Y-6.0079
X7.7362Y-2.7992
X7.7362Y-4.5374
X7.7362Y-4.7146
X7.7362Y-4.7736
X7.7441Y-2.3898
X7.7461Y-2.5098
X7.7461Y-2.6063
X7.748Y-2.0354
X7.748Y-2.1063
X7.7559Y-4.2028
X7.7657Y-1.8406
X7.7756Y-2.8248
X7.8031Y-2.0354
X7.8051Y-4.2028
X7.8051Y-4.5768
X7.811Y-4.2835
X7.815Y-4.7343
X7.815Y-4.8031
X7.815Y-4.9705
X7.815Y-5.0591
X7.815Y-5.1378
X7.8189Y-2.5098
X7.8189Y-2.6063
X7.8248Y-4.0256
X7.8386Y-4.6142
X7.8543Y-2.2835
X7.8543Y-4.2028
X7.8839Y-4.4291
X7.8937Y-2.5098
X7.8937Y-2.6063
X7.8937Y-4.5768
X7.9035Y-4.4882
X7.9035Y-4.7874
X7.9134Y-2.1949
X7.9331Y-2.6811
X7.9331Y-2.7717
X7.9331Y-2.8622
X7.9331Y-2.9567
X7.9409Y-2.4528
X7.9429Y-4.9705
X7.9429Y-5.0591
X7.9429Y-5.1378
X7.9449Y-4.6693
X7.9449Y-4.7087
X7.9488Y-2.5157
X7.9606Y-4.8445
X7.9724Y-2.1063
X7.9724Y-4.3504
X7.9843Y-5.5433
X7.9921Y-2.372
X7.9941Y-6.0433
X8.002Y-4.8445
X8.0118Y-4.1339
X8.0118Y-4.2618
X8.0118Y-5.6476
X8.0276Y-2.4528
X8.0315Y-2.5669
X8.0315Y-2.6811
X8.0315Y-2.7717
X8.0315Y-2.8622
X8.0315Y-2.9567
X8.0413Y-4.8445
X8.0472Y-4.4606
X8.0472Y-4.6339
X8.0512Y-4.9705
X8.0512Y-5.0591
X8.0512Y-5.1378
X8.0512Y-5.6476
X8.0807Y-2.1063
X8.0906Y-5.6476
X8.1004Y-2.372
X8.1142Y-5.0197
X8.1299Y-5.6476
X8.1535Y-2.9331
X8.1634Y-5.061
X8.1791Y-2.4311
X8.1791Y-2.5689
X8.189Y-2.248
X8.189Y-4.5472
X8.1929Y-2.8898
X8.1969Y-5.6437
X8.2559Y-2.1969
X8.2559Y-2.248
X8.2559Y-2.2992
X8.2579Y-4.498
X8.2579Y-4.5472
X8.2579Y-4.5965
X8.2795Y-5.7126
X8.3169Y-2.4311
X8.3169Y-2.5689
X8.3189Y-5.7126
X8.3268Y-4.9311
X8.3268Y-5.0492
X8.3465Y-2.811
X8.3465Y-5.3957
X8.3583Y-5.7126
X8.3661Y-2.7165
X8.3661Y-5.187
X8.3858Y-2.9331
X8.3976Y-5.7126
X8.4055Y-2.1063
X8.4055Y-2.3819
X8.4154Y-4.6752
X8.4154Y-5.2362
X8.4252Y-2.8898
X8.4252Y-4.4094
X8.4567Y-2.7165
X8.4646Y-2.4311
X8.4646Y-2.5689
X8.5184Y-5.065
X8.5531Y-4.6752
X8.5578Y-5.0197
X8.563Y-4.4094
X8.5827Y-2.1063
X8.5827Y-2.3819
X8.5827Y-2.7008
X8.5827Y-2.811
X8.5827Y-2.9055
X8.5827Y-3.0118
X8.5827Y-5.5748
X8.5827Y-5.6142
X8.5827Y-5.6535
X8.5827Y-5.6929
X8.5827Y-5.7323
X8.5827Y-5.7717
X8.7008Y-4.6752
X8.7323Y-5.5748
X8.7323Y-5.6142
X8.7323Y-5.6535
X8.7323Y-5.6929
X8.7323Y-5.7323
X8.7323Y-5.7717
X8.7598Y-5.0197
X8.7598Y-5.187
X8.8583Y-5.8661
X8.8583Y-6.063
X8.8583Y-6.2205
X9.0846Y-5.0197
X9.0846Y-5.187
X9.126Y-5.5709
X9.126Y-5.6102
X9.126Y-5.6496
X9.126Y-5.689
X9.126Y-5.7283
X9.126Y-5.7677
X9.1614Y-6.0118
X9.1614Y-6.0512
X9.1614Y-6.0906
X9.1614Y-6.1299
X9.2756Y-5.5709
X9.2756Y-5.6102
X9.2756Y-5.6496
X9.2756Y-5.689
X9.2756Y-5.7283
X9.2756Y-5.7677
X9.5276Y-5.7874
X9.6063Y-5.9843
X9.6063Y-6.1811
X9.7638Y-5.7874
X9.8425Y-5.9843
X9.8425Y-6.1811
X10.0Y-5.7874
X10.315Y-5.7874
X10.4331Y-5.9843
X10.4331Y-6.1811
X10.5512Y-5.7874
T3
X3.7672Y-4.7082
X3.8263Y-2.3755
X3.846Y-4.5114
X3.905Y-2.1787
X6.7028Y-2.7559
X6.8996Y-2.8346
X8.315Y-3.5827
X8.3937Y-3.3858
X8.4262Y-1.3799
X8.5049Y-1.1831
T4
X3.7913Y-5.4695
X3.7913Y-5.5482
X3.7968Y-3.1162
X3.7968Y-3.1949
X4.9085Y-3.747
X4.9085Y-3.8258
X4.9803Y-4.6181
X4.9803Y-4.6969
X5.0217Y-4.9016
X5.0217Y-4.9803
X5.0283Y-5.5217
X5.0283Y-5.6004
X5.2248Y-5.9154
X5.2248Y-5.9941
X5.2248Y-6.0728
X5.2248Y-6.1516
X5.2248Y-6.2303
X5.4807Y-5.9154
X5.4807Y-5.9941
X5.4807Y-6.0728
X5.4807Y-6.1516
X5.4807Y-6.2303
X6.0335Y-2.7963
X6.0335Y-2.875
X7.0571Y-4.5965
X7.0571Y-4.8406
X7.0856Y-4.1043
X7.0856Y-4.1831
X7.1358Y-4.5965
X7.1358Y-4.8406
X8.4773Y-4.5067
X8.4773Y-4.5854
X8.5157Y-2.2087
X8.5157Y-2.2874
T5
X4.2987Y-4.2456
X4.2987Y-4.8952
X4.3381Y-2.0704
X4.3381Y-2.72
X4.5822Y-4.2456
X4.5822Y-4.8952
X4.6216Y-2.0704
X4.6216Y-2.72
X6.2598Y-3.1594
X6.2598Y-3.4429
X6.9094Y-3.1594
X6.9094Y-3.4429
X7.6191Y-1.1909
X7.6191Y-1.8406
X7.687Y-3.376
X7.687Y-4.0256
X7.9026Y-1.1909
X7.9026Y-1.8406
X7.9705Y-3.376
X7.9705Y-4.0256
T6
X6.0157Y-6.2326
X6.2126Y-6.2326
T7
X6.5339Y-5.7106
X6.5339Y-5.8106
X6.5339Y-5.9106
X6.5339Y-6.0106
X6.5339Y-6.1106
X6.6339Y-5.7106
X6.6339Y-5.8106
X6.6339Y-5.9106
X6.6339Y-6.0106
X6.6339Y-6.1106
T8
X3.1373Y-3.5074
X3.1398Y-5.7087
X3.3342Y-3.5074
X3.3366Y-5.7087
X3.531Y-3.5074
X3.5335Y-5.7087
X5.4906Y-2.1654
X5.4906Y-2.3622
X5.4906Y-2.5591
X8.7402Y-4.812
X8.7411Y-2.6299
X8.937Y-4.812
X8.938Y-2.6299
X9.1339Y-4.812
X9.1348Y-2.6299
T9
X4.1743Y-6.2323
X4.3712Y-6.2323
X7.0079Y-6.2303
X7.2047Y-6.2303
X9.2028Y-6.2323
X9.3996Y-6.2323
T11
X3.1865Y-2.4248
X3.189Y-4.626
X3.4818Y-2.159
X3.4843Y-4.3602
X6.5732Y-2.2146
X6.839Y-2.5098
X8.7894Y-3.7293
X8.7904Y-1.5472
X9.0846Y-3.4636
X9.0856Y-1.2815
T12
X2.0866Y-1.1024
X2.0866Y-5.9843
X10.1181Y-1.1024
X10.1181Y-5.9843
T13
X2.655Y-2.1098
X2.655Y-3.2909
X2.6649Y-4.1098
X2.6649Y-5.2909
X5.5693Y-1.698
X6.7504Y-1.698
X9.5965Y-3.5335
X9.5965Y-4.7146
X9.6161Y-1.752
X9.6161Y-2.9331
T3
G00X5.9764Y-6.3527
M15
G01X5.9764Y-6.3251
M16
G05
G00X6.252Y-6.3251
M15
G01X6.252Y-6.3527
M16
G05
T10
G00X2.1123Y-4.221
M15
G01X2.1123Y-4.221
M16
G05
G00X2.1123Y-4.595
M15
G01X2.1123Y-4.595
M16
G05
G00X2.1123Y-4.969
M15
G01X2.1123Y-4.969
M16
G05
G00X2.1123Y-5.3431
M15
G01X2.1123Y-5.3431
M16
G05
G00X2.1137Y-2.1984
M15
G01X2.1137Y-2.1984
M16
G05
G00X2.1137Y-2.5724
M15
G01X2.1137Y-2.5724
M16
G05
G00X2.1137Y-2.9464
M15
G01X2.1137Y-2.9464
M16
G05
G00X2.1137Y-3.3204
M15
G01X2.1137Y-3.3204
M16
G05
G00X5.6102Y-1.1417
M15
G01X5.6102Y-1.1417
M16
G05
G00X5.9843Y-1.1417
M15
G01X5.9843Y-1.1417
M16
G05
G00X6.3583Y-1.1417
M15
G01X6.3583Y-1.1417
M16
G05
G00X6.7323Y-1.1417
M15
G01X6.7323Y-1.1417
M16
G05
G00X10.1594Y-1.9587
M15
G01X10.1594Y-1.9587
M16
G05
G00X10.1594Y-2.3327
M15
G01X10.1594Y-2.3327
M16
G05
G00X10.1594Y-2.7067
M15
G01X10.1594Y-2.7067
M16
G05
G00X10.1594Y-3.0807
M15
G01X10.1594Y-3.0807
M16
G05
G00X10.1594Y-3.6722
M15
G01X10.1594Y-3.6722
M16
G05
G00X10.1594Y-4.0463
M15
G01X10.1594Y-4.0463
M16
G05
G00X10.1594Y-4.4203
M15
G01X10.1594Y-4.4203
M16
G05
G00X10.1594Y-4.7943
M15
G01X10.1594Y-4.7943
M16
G05
T0
M30
